<svg xmlns="http://www.w3.org/2000/svg" viewBox="0 0 815 80">
<g>
	<g id="Layer_1_00000114075296036933777790000012133126823115252148_">
		<path d="M162.5,54.9c0,13.8-11.7,20.7-35,20.7c-5.1,0-12.4-0.2-21.7-0.6l0.7-21l-0.7-49.7l28.4-0.1
			c7.8,0,14,1.5,18.4,4.6s6.6,7.5,6.6,13.3c0,7.7-3.8,13.1-11.3,16.4C157.6,40.9,162.4,46.4,162.5,54.9z M144.4,54.1
			c0.1-2-0.8-4-2.4-5.3c-2.2-1.6-4.7-2.6-7.3-3.1L122.6,46l-0.1,6.4l0.3,10.5c2.9,0.3,5.5,0.4,7.8,0.4
			C139.8,63.3,144.4,60.3,144.4,54.1L144.4,54.1z M137.9,18.5c-2-1.1-5.5-1.7-10.6-1.7H123l-0.3,16.7l10.2,0.3
			c2.3-0.4,4.3-1.5,6-3.1c1.3-1.4,2-3.4,2-6.2C140.9,21.7,139.9,19.7,137.9,18.5L137.9,18.5z"/>
		<path d="M226.1,61.9l-1.3,13.2h-48.4l0.7-21l-0.7-49.7h49.1l1,1.4l-1.1,13l-18.2-0.7h-13.1l-0.3,14.3l12.6,0.1
			l12.2-0.4l1,1.3l-1.1,13.3l-13.3-0.4h-11.7l-0.1,6.2l0.3,9H206l19-0.6L226.1,61.9z"/>
		<path d="M302.6,75.1h-19.2l-28.3-43.8h-1l-0.1,19l0.5,24.8h-16l0.7-20.7l-0.7-50h19l28.3,43.8h1.3l-0.5-43.1l16.2-1.1
			l-1,48.7L302.6,75.1z"/>
		<path d="M373.8,7.1l-3.1,14.8l-1.4,0.7c-4.8-3.2-10.5-4.9-16.2-4.8c-5.7,0-9.9,1.7-12.7,5c-2.8,3.3-4.2,8.5-4.2,15.6
			c0,15.4,5.9,23.1,17.8,23.1c5.9,0,11.6-1.4,16.8-4.2l1.5,0.8l-1.4,14.7c-5.7,2.3-11.9,3.4-18.1,3.4c-11.5,0-20.2-3.1-26.2-9.2
			s-9-15-9-26.6c0-11.8,3.2-20.9,9.5-27.3s15.3-9.7,27-9.7C360.9,3.4,367.4,4.6,373.8,7.1z"/>
		<path d="M452.2,75.1h-17.6l0.7-21l-0.1-6.9l-15.8-0.1l-14.1,0.3l-0.1,5l0.7,22.7h-17.8l0.7-21l-0.7-49.7H406l-0.6,28
			l15,0.3l14.6-0.1l-0.4-28.1h17.9l-1,48L452.2,75.1z"/>
		<path d="M486.9,34.8l9.8,0.1l13-0.4l1.1,1.3l-1.3,13.2l-14.3-0.4l-8.7,0.1l-0.1,3.8l0.7,22.7h-17.6l0.8-21l-0.8-49.7
			h46.2l1,1.4l-1.3,13l-18.1-0.7h-10.1L486.9,34.8z"/>
		<path d="M584.1,12.4c5.8,6.1,8.7,14.7,8.7,25.8c0,12.1-3.2,21.5-9.5,28.2c-6.3,6.7-15.2,10-26.7,10
			c-10.6,0-18.7-3.1-24.5-9.3c-5.8-6.2-8.7-15-8.7-26.2c0-11.9,3.1-21.2,9.4-27.7s15.1-9.8,26.6-9.8C570.1,3.3,578.2,6.3,584.1,12.4
			z M545.4,22.3c-2.5,3.1-3.7,8.5-3.7,16.2c0,6.2,0.5,11,1.6,14.5s2.8,6,5.2,7.5s5.6,2.2,9.6,2.2c5.9,0,10.1-1.5,12.5-4.6
			s3.7-8.5,3.7-16.2c0-6.2-0.6-11-1.7-14.5c-1.1-3.5-2.8-6-5.2-7.5c-2.3-1.5-5.6-2.2-9.7-2.2C552.1,17.6,547.9,19.1,545.4,22.3z"/>
		<path d="M663.2,12.4c5.8,6.1,8.7,14.7,8.7,25.8c0,12.1-3.2,21.5-9.5,28.2c-6.3,6.7-15.2,10-26.7,10
			c-10.5,0-18.7-3.1-24.5-9.3c-5.8-6.2-8.7-15-8.7-26.2c0-11.9,3.1-21.2,9.4-27.7s15.1-9.8,26.6-9.8C649.2,3.3,657.4,6.3,663.2,12.4
			z M624.7,22.3c-2.5,3.1-3.7,8.5-3.7,16.2c0,6.2,0.5,11,1.6,14.5s2.8,6,5.2,7.5s5.6,2.2,9.6,2.2c5.9,0,10.1-1.5,12.5-4.6
			c2.5-3.1,3.7-8.5,3.7-16.2c0-6.2-0.6-11-1.7-14.5s-2.8-6-5.2-7.5c-2.3-1.5-5.6-2.2-9.7-2.2C631.2,17.6,627.2,19.1,624.7,22.3z"/>
		<path d="M742.8,12.4c5.8,5.7,8.7,13.9,8.8,24.6c0,12.5-3.3,22.1-9.9,28.8S725.8,76,713.4,76c-7.2,0-16.1-0.3-26.7-0.8
			l0.7-21l-0.7-49.7l31.1-0.6C728.7,3.8,737.1,6.7,742.8,12.4z M733.4,41.2c0-8.3-1.4-14.2-4.1-17.8c-2.7-3.6-7-5.4-13-5.4
			c-4,0-8,0.2-12,0.6l-0.7,33.9l0.3,9.1c4.2,0.6,8.5,0.9,12.7,1C727.8,62.5,733.4,55.4,733.4,41.2z"/>
		<path d="M810.8,6.9l-2.7,15.7l-2.5,0.7c-6.1-4.5-11.5-6.7-16.4-6.7c-2.2-0.1-4.4,0.5-6.2,1.9
			c-1.4,1.1-2.2,2.8-2.2,4.6c0,2,1.1,3.8,2.8,4.8c2.8,1.7,5.8,3.2,8.8,4.4c3.5,1.4,6.9,3.1,10.3,4.9c2.7,1.5,5.1,3.7,6.9,6.2
			c2,2.9,3,6.4,2.9,10c0,4-1.1,7.9-3.2,11.3c-2.3,3.7-5.6,6.6-9.5,8.5c-4.2,2.1-9.5,3.2-15.8,3.2c-7.7,0-15.4-1.5-22.5-4.3l2.4-16.5
			l1.8-1.3c3.1,2.8,6.6,5.1,10.4,6.7c3.2,1.5,6.7,2.4,10.2,2.5c2.3,0.1,4.5-0.6,6.4-2c1.5-1.1,2.4-3,2.4-4.9c0-2.1-1.1-4-2.9-5
			c-2.8-1.7-5.8-3.1-8.9-4.3c-3.5-1.5-7-3.1-10.3-5c-2.7-1.6-5.1-3.8-6.9-6.4c-2-3-3-6.5-2.9-10.1c0-4.1,1.2-8.1,3.4-11.5
			c2.4-3.6,5.8-6.4,9.8-8.1c4.7-2.1,9.8-3.1,14.9-2.9C798.2,3.3,804.7,4.6,810.8,6.9z"/>
	</g>
	<g id="New">
		<path fill="#F48120" d="M63.3,4.3H13.7C7.9,4.3,3.2,9,3.2,14.8v49.6c0,5.8,4.7,10.5,10.5,10.5l0,0h49.6c5.8,0,10.5-4.7,10.5-10.5l0,0
			V14.8C73.8,9,69.1,4.3,63.3,4.3z M60.8,56.2c-3.6,5.1-9,8.6-15.1,9.9c-14.2,3.3-28.4-5.5-31.8-19.7c-0.2-1-0.4-2.1-0.5-3.2
			c-0.1-1-0.2-2.1-0.1-3.2V29.2c0-4.5,0-8.9,0-13.4c-0.1-0.8,0.4-1.5,1.1-1.7c0.2-0.1,0.4-0.1,0.6-0.1c8.2,0,16.5,0,24.7,0.1
			c7-0.1,13.7,2.7,18.6,7.7c4,3.9,6.6,9.1,7.4,14.7C66.8,43.4,65,50.6,60.8,56.2z"/>
		<path fill="#2783A4" d="M23.4,33.2c0-2.8,0-5.7,0-8.5c0-0.3,0-0.4,0.4-0.4c5.4,0,10.9-0.1,16.3,0.1C49,24.8,56,32.2,55.7,41.1
			c-0.3,7.8-6.1,14.4-13.9,15.5c-8.9,1.2-17.1-4.9-18.3-13.8c-0.1-0.8-0.2-1.6-0.2-2.4C23.4,37.9,23.4,35.5,23.4,33.2z"/>
	</g>
</g>
</svg>